<?xml version="1.0" encoding="iso-8859-1"?>
<!-- Generator: Adobe Illustrator 17.1.0, SVG Export Plug-In . SVG Version: 6.00 Build 0)  -->
<!DOCTYPE svg PUBLIC "-//W3C//DTD SVG 1.1//EN" "http://www.w3.org/Graphics/SVG/1.1/DTD/svg11.dtd">
<svg version="1.1" id="Capa_1" xmlns="http://www.w3.org/2000/svg" xmlns:xlink="http://www.w3.org/1999/xlink" x="0px" y="0px"
	 viewBox="0 0 214.333 214.333" style="enable-background:new 0 0 214.333 214.333;" xml:space="preserve">
<path d="M211.833,150.5H2.5c-1.381,0-2.5-1.119-2.5-2.5s1.119-2.5,2.5-2.5h209.333c1.381,0,2.5,1.119,2.5,2.5
	S213.214,150.5,211.833,150.5z M192.708,140.833H17.091c-1.381,0-2.5-1.119-2.5-2.5V78.542c0-8.11,6.598-14.709,14.708-14.709
	h105.809c26.263,0,49.06,15.12,60.143,37.113c0.117,0.174,0.211,0.364,0.282,0.565c3.148,6.396,5.31,13.358,6.286,20.692
	c0.052,0.254,0.085,0.516,0.099,0.782c0.324,2.67,0.491,5.392,0.491,8.148C202.409,136.482,198.057,140.833,192.708,140.833z
	 M19.591,135.833h173.117c2.592,0,4.7-2.108,4.7-4.7c0-0.229-0.001-0.456-0.004-0.684c-0.245,0.035-0.496,0.053-0.75,0.053h-9.484
	c-2.906,0-5.271-2.365-5.271-5.271v-1.971c0-2.906,2.365-5.271,5.271-5.271h8.844c-0.99-4.594-2.488-8.999-4.432-13.157h-44.851
	c-0.017,0-0.033,0-0.049,0h-17.01c-0.025,0-0.05,0-0.075,0H61.378c-0.029,0.001-0.058,0-0.086,0H19.591V135.833z M187.17,122.99
	c-0.149,0-0.271,0.122-0.271,0.271v1.971c0,0.149,0.122,0.271,0.271,0.271h9.484c0.149,0,0.271-0.122,0.271-0.271v-1.879
	c-0.009-0.071-0.017-0.138-0.026-0.208c-0.044-0.091-0.137-0.154-0.245-0.154H187.17z M147.927,99.833h41.033
	c-4.475-7.67-10.542-14.304-17.745-19.443c-0.077,0.007-0.156,0.011-0.235,0.011h-38.165L147.927,99.833z M130.978,99.833h10.615
	l-15.111-19.432h-8.326L130.978,99.833z M62.745,99.833h62.243l-12.822-19.432H51.023L62.745,99.833z M19.591,99.833h37.314
	L45.184,80.401H19.591V99.833z M127.725,75.401h35.213c-8.38-4.201-17.834-6.568-27.83-6.568H29.3c-4.254,0-7.878,2.751-9.187,6.568
	h26.438c0.028-0.001,0.056-0.001,0.084,0h66.836c0.024,0,0.049,0,0.073,0h14.136C127.695,75.401,127.71,75.401,127.725,75.401z
	 M160.277,130.503h-9.484c-2.906,0-5.271-2.365-5.271-5.271v-1.971c0-2.906,2.365-5.271,5.271-5.271h9.484
	c2.906,0,5.271,2.365,5.271,5.271v1.971C165.548,128.138,163.183,130.503,160.277,130.503z M150.792,122.99
	c-0.149,0-0.271,0.122-0.271,0.271v1.971c0,0.149,0.122,0.271,0.271,0.271h9.484c0.149,0,0.271-0.122,0.271-0.271v-1.971
	c0-0.149-0.122-0.271-0.271-0.271H150.792z"/>
<g>
</g>
<g>
</g>
<g>
</g>
<g>
</g>
<g>
</g>
<g>
</g>
<g>
</g>
<g>
</g>
<g>
</g>
<g>
</g>
<g>
</g>
<g>
</g>
<g>
</g>
<g>
</g>
<g>
</g>
</svg>
