<svg xmlns="http://www.w3.org/2000/svg" xmlns:xlink="http://www.w3.org/1999/xlink" viewBox="0 0 500 162.8"><defs><path id="a" d="M258.6 52.4c-.3 22.4 20 34.9 35.2 42.3 15.7 7.6 20.9 12.5 20.9 19.3-.1 10.4-12.5 15-24.1 15.2-20.2.3-32-5.5-41.3-9.8l-7.3 34.1c9.4 4.3 26.7 8.1 44.7 8.3 42.3 0 69.9-20.9 70.1-53.2.2-41-56.8-43.3-56.4-61.7.1-5.6 5.4-11.5 17.1-13 5.8-.8 21.7-1.3 39.7 7l7.1-33C354.5 4.4 342 1 326.5 1c-39.7 0-67.7 21.1-67.9 51.4M432.2 3.8c-7.7 0-14.2 4.5-17.1 11.4l-60.4 144.1h42.2l8.4-23.2h51.6l4.9 23.2H499L466.5 3.8h-34.3m5.9 42.1l12.2 58.4h-33.4l21.2-58.4M207.4 3.8l-33.3 155.6h40.2L247.6 3.8h-40.2m-59.6 0l-41.9 105.9-16.9-90c-2-10-9.8-15.9-18.6-15.9H2L1 8.4c14.1 3.1 30 8 39.7 13.2 5.9 3.2 7.6 6 9.6 13.7l32.1 124.1h42.5L190.1 3.8h-42.3"/></defs><clipPath id="b"><use overflow="visible" xlink:href="#a"/></clipPath><linearGradient id="c" x1="212.587" x2="213.587" y1="118.258" y2="118.258" gradientTransform="scale(447.2655 -447.2655) rotate(20.218 438.979 -536.955)" gradientUnits="userSpaceOnUse"><stop offset="0" stop-color="#222357"/><stop offset="1" stop-color="#254aa5"/></linearGradient><path fill="url(#c)" d="M-51.1 20.2l490.7-180.7 111.6 303.1L60.5 323.3" clip-path="url(#b)"/></svg>