<svg xmlns="http://www.w3.org/2000/svg" viewBox="0 0 199.9 123.4"><path fill="#ff5f00" d="M126.9 110.4H72.8V13.2h54.1v97.2z"/><path fill="#eb001b" d="M76.3 61.8c0-19.7 9.2-37.3 23.6-48.6C89.4 4.9 76.1-.1 61.7-.1 27.5-.1-.1 27.6-.1 61.8s27.7 61.8 61.8 61.8c14.4 0 27.7-4.9 38.2-13.2C85.5 99 76.3 81.5 76.3 61.8"/><path fill="#f79e1b" d="M199.8 61.8c0 34.1-27.7 61.8-61.8 61.8-14.4 0-27.7-4.9-38.2-13.2 14.4-11.3 23.6-28.9 23.6-48.6s-9.2-37.3-23.6-48.6C110.3 4.9 123.6-.1 138-.1c34.1 0 61.8 27.7 61.8 61.9"/></svg>